# xmcd
#
# Track frame offsets:
#	150
#	11952
#	25582
#	40012
#	50762
#	70622
#	82300
#	99500
#	113420
#	126517
#	144715
#	154715
#	170402
#	181117
#	189397
#	198867
#	206975
#	217040
#	230327
#	243397
#	261145
#	283415
#	298700
#
# Disc length: 4324 seconds
#
# Revision: 1
# Processed by: cddbd v1.5.1PL0 Copyright (c) Steve Scherf et al.
# Submitted via: CDex 1.50Beta5
#
DISCID=5910e217
DTITLE=Various Artist - Dancemania Speed Presents トランス・レイヴァース
DYEAR=1900
DGENRE=Dance
TTITLE0=SCOTT BROWN/NOW IS THE TIME 2000
TTITLE1=TECHNO-PHONIC/シンス・アンド・スタッフ
TTITLE2=C.U./カヴァー・アップ5(カルト・ブランシュ)
TTITLE3=ヒクシー+UFO/FOREVER COMES
TTITLE4=BANG!/ブレイク・オブ・ドーン(スコット・ブラウン・ミックス)
TTITLE5=DJクアトロ&DJインパクト/ACID GIVING YOU ENERGY
TTITLE6=DJフェイド/VORTEX
TTITLE7=HELIX/NOW CONTROL
TTITLE8=SCOTT BROWN/JOHNNY
TTITLE9=スタイルズ&ブリーズ/FUTURESET
TTITLE10=SCOTT BROWN/ENLIGHTEND
TTITLE11=ヒクシー+UFO/WHITE DUST
TTITLE12=クエスト/IMAGES OF YOU
TTITLE13=C.U./カヴァー・アップ1(AYLA)
TTITLE14=DJ EVIL&ニューロン/MINIMUM MINIMUM
TTITLE15=スコット・ブラウン&ギリアン・テナント/ELYSIUM
TTITLE16=KEVIN ENERGY, SHARKEY and K COMPLEX/ザ・バプティズム
TTITLE17=ヒクシー+UFO/TSUNAMI
TTITLE18=ENERGY and BLACK OUT/CRAZY STYLE
TTITLE19=C.U./カヴァー・アップ2(1998)
TTITLE20=Q-TEX/パワー・オブ・ラヴ2001
TTITLE21=MR.X/BACK IN MY LIFE
TTITLE22=DA EDGE/シャイン
EXTD=
EXTT0=
EXTT1=
EXTT2=
EXTT3=
EXTT4=
EXTT5=
EXTT6=
EXTT7=
EXTT8=
EXTT9=
EXTT10=
EXTT11=
EXTT12=
EXTT13=
EXTT14=
EXTT15=
EXTT16=
EXTT17=
EXTT18=
EXTT19=
EXTT20=
EXTT21=
EXTT22=
PLAYORDER=
